<?xml version="1.0" encoding="UTF-8"?>
<svg xmlns="http://www.w3.org/2000/svg" xmlns:xlink="http://www.w3.org/1999/xlink" width="150pt" height="70pt" viewBox="0 0 150 70" version="1.1">
<g id="surface1">
<path style=" stroke:none;fill-rule:nonzero;fill:rgb(0%,39.607843%,98.823529%);fill-opacity:1;" d="M 19.566406 45.699219 C 19.203125 44.570312 18.839844 43.566406 18.476562 42.691406 C 18.152344 41.816406 17.863281 41.070312 17.609375 40.449219 C 16.195312 40.925781 14.65625 41.253906 12.988281 41.433594 C 12.988281 43.769531 13.042969 45.753906 13.148438 47.394531 C 13.1875 48.417969 13.222656 49.292969 13.257812 50.019531 C 13.332031 50.714844 13.386719 51.316406 13.421875 51.824219 C 13.496094 52.335938 13.566406 52.792969 13.640625 53.191406 C 13.710938 53.628906 13.820312 54.050781 13.964844 54.449219 C 13.242188 54.996094 12.535156 55.398438 11.84375 55.652344 C 11.191406 55.910156 10.613281 56.089844 10.105469 56.199219 C 9.488281 56.347656 8.945312 56.382812 8.476562 56.308594 C 8.292969 55.800781 8.128906 55.253906 7.984375 54.667969 C 7.839844 54.121094 7.730469 53.355469 7.660156 52.371094 C 7.625 51.425781 7.605469 50.203125 7.605469 48.707031 C 7.605469 47.214844 7.660156 45.300781 7.769531 42.964844 C 7.804688 42.710938 7.824219 42.457031 7.824219 42.199219 C 7.824219 41.945312 7.839844 41.691406 7.875 41.433594 C 7.550781 41.398438 7.207031 41.363281 6.84375 41.324219 C 6.519531 41.289062 6.191406 41.253906 5.867188 41.214844 C 5.648438 40.632812 5.503906 40.121094 5.429688 39.683594 C 5.359375 39.210938 5.320312 38.828125 5.320312 38.535156 C 5.320312 38.171875 5.359375 37.878906 5.429688 37.660156 C 6.011719 37.769531 6.589844 37.824219 7.171875 37.824219 L 7.984375 37.824219 C 8.058594 36.292969 8.128906 34.746094 8.203125 33.175781 C 8.277344 31.574219 8.328125 30.023438 8.367188 28.527344 C 8.4375 26.996094 8.492188 25.558594 8.53125 24.207031 C 8.566406 22.824219 8.601562 21.566406 8.636719 20.433594 C 7.550781 21.164062 6.609375 22.113281 5.8125 23.277344 C 5.015625 24.445312 4.46875 25.792969 4.179688 27.324219 C 3.707031 27.253906 3.308594 27.035156 2.984375 26.667969 C 2.65625 26.269531 2.386719 25.867188 2.167969 25.464844 C 1.914062 24.992188 1.699219 24.464844 1.515625 23.878906 C 1.335938 23.1875 1.335938 22.496094 1.515625 21.800781 C 1.699219 21.074219 1.96875 20.398438 2.332031 19.777344 C 2.695312 19.121094 3.109375 18.558594 3.582031 18.082031 C 4.054688 17.574219 4.507812 17.171875 4.941406 16.878906 C 5.703125 16.40625 6.480469 15.988281 7.277344 15.621094 C 8.113281 15.222656 9.035156 14.894531 10.050781 14.636719 C 10.449219 14.238281 10.886719 13.871094 11.355469 13.542969 C 11.863281 13.214844 12.335938 13.015625 12.769531 12.941406 C 13.386719 12.796875 13.730469 13.179688 13.804688 14.089844 C 14.128906 14.054688 14.472656 14.035156 14.835938 14.035156 C 15.199219 14 15.578125 13.980469 15.976562 13.980469 C 17.355469 13.980469 18.785156 14.199219 20.273438 14.636719 C 21.757812 15.074219 23.117188 15.785156 24.351562 16.769531 C 25.617188 17.71875 26.652344 18.976562 27.449219 20.542969 C 28.246094 22.074219 28.644531 23.953125 28.644531 26.175781 C 28.644531 28.691406 28.046875 31.007812 26.851562 33.121094 C 25.691406 35.238281 24.023438 36.988281 21.847656 38.371094 C 22.101562 39.027344 22.429688 39.847656 22.828125 40.832031 C 23.226562 41.816406 23.625 42.929688 24.023438 44.167969 C 24.601562 45.699219 25.21875 47.140625 25.871094 48.488281 C 26.558594 49.800781 27.265625 50.949219 27.992188 51.933594 C 28.71875 52.917969 29.476562 53.703125 30.277344 54.285156 C 31.074219 54.90625 31.871094 55.269531 32.667969 55.378906 C 32.195312 56.109375 31.652344 56.621094 31.035156 56.910156 C 30.421875 57.203125 29.804688 57.386719 29.1875 57.457031 C 28.5 57.566406 27.773438 57.566406 27.011719 57.457031 C 25.960938 57.238281 25.054688 56.730469 24.296875 55.925781 C 23.535156 55.125 22.863281 54.160156 22.285156 53.027344 C 21.738281 51.898438 21.234375 50.695312 20.761719 49.417969 C 20.328125 48.105469 19.929688 46.867188 19.566406 45.699219 Z M 13.257812 22.402344 C 13.257812 23.207031 13.242188 24.171875 13.203125 25.300781 C 13.167969 26.433594 13.132812 27.652344 13.097656 28.964844 C 13.097656 30.277344 13.078125 31.664062 13.042969 33.121094 C 13.003906 34.542969 12.988281 35.964844 12.988281 37.386719 C 13.964844 37.242188 15.035156 37.003906 16.195312 36.675781 C 17.390625 36.347656 18.496094 35.800781 19.511719 35.035156 C 20.527344 34.269531 21.378906 33.25 22.066406 31.972656 C 22.753906 30.699219 23.097656 29.058594 23.097656 27.050781 C 23.097656 25.519531 22.828125 24.226562 22.285156 23.167969 C 21.777344 22.074219 21.105469 21.199219 20.273438 20.542969 C 19.4375 19.851562 18.515625 19.359375 17.5 19.066406 C 16.519531 18.738281 15.542969 18.574219 14.5625 18.574219 C 14.382812 18.574219 14.203125 18.574219 14.019531 18.574219 C 13.839844 18.574219 13.640625 18.59375 13.421875 18.628906 C 13.3125 19.796875 13.257812 21.054688 13.257812 22.402344 Z M 38.917969 51.933594 C 36.382812 51.933594 34.425781 51.078125 33.046875 49.363281 C 31.671875 47.652344 30.980469 45.410156 30.980469 42.636719 C 30.980469 40.707031 31.253906 38.902344 31.796875 37.222656 C 32.378906 35.511719 33.140625 34.035156 34.082031 32.792969 C 35.023438 31.554688 36.109375 30.589844 37.34375 29.894531 C 38.613281 29.167969 39.933594 28.800781 41.3125 28.800781 C 42.652344 28.800781 43.792969 29.292969 44.738281 30.277344 C 45.679688 31.226562 46.148438 32.59375 46.148438 34.378906 C 46.148438 35.546875 45.894531 36.714844 45.390625 37.878906 C 44.882812 39.011719 44.210938 40.03125 43.378906 40.941406 C 42.582031 41.816406 41.691406 42.527344 40.714844 43.074219 C 39.734375 43.621094 38.792969 43.894531 37.886719 43.894531 C 37.308594 43.894531 36.816406 43.824219 36.417969 43.675781 C 36.019531 43.53125 35.65625 43.3125 35.332031 43.019531 C 35.441406 45.097656 35.894531 46.558594 36.691406 47.394531 C 37.488281 48.199219 38.519531 48.597656 39.789062 48.597656 C 40.660156 48.597656 41.421875 48.417969 42.074219 48.050781 C 42.761719 47.6875 43.339844 47.269531 43.8125 46.792969 C 44.285156 46.320312 44.664062 45.847656 44.953125 45.371094 C 45.242188 44.863281 45.441406 44.480469 45.550781 44.222656 C 45.660156 44.003906 45.84375 43.894531 46.097656 43.894531 C 46.386719 43.894531 46.53125 44.113281 46.53125 44.550781 C 46.53125 44.953125 46.386719 45.574219 46.097656 46.410156 C 45.84375 47.214844 45.40625 48.035156 44.789062 48.871094 C 44.175781 49.675781 43.378906 50.386719 42.398438 51.003906 C 41.457031 51.625 40.296875 51.933594 38.917969 51.933594 Z M 41.421875 31.152344 C 41.203125 31.152344 40.785156 31.390625 40.171875 31.863281 C 39.589844 32.300781 38.957031 32.957031 38.265625 33.832031 C 37.613281 34.707031 37 35.765625 36.417969 37.003906 C 35.875 38.207031 35.53125 39.574219 35.386719 41.105469 C 37.558594 40.597656 39.28125 39.792969 40.550781 38.699219 C 41.820312 37.605469 42.453125 36.003906 42.453125 33.886719 C 42.453125 32.832031 42.328125 32.121094 42.074219 31.753906 C 41.820312 31.355469 41.601562 31.152344 41.421875 31.152344 Z M 58.273438 40.941406 C 59.070312 41.234375 59.832031 41.507812 60.558594 41.761719 C 61.28125 42.019531 61.917969 42.328125 62.460938 42.691406 C 63.003906 43.058594 63.4375 43.496094 63.765625 44.003906 C 64.089844 44.480469 64.253906 45.082031 64.253906 45.808594 C 64.253906 46.683594 64.054688 47.503906 63.65625 48.269531 C 63.292969 49.035156 62.75 49.710938 62.023438 50.292969 C 61.300781 50.878906 60.410156 51.332031 59.359375 51.660156 C 58.347656 52.027344 57.203125 52.207031 55.9375 52.207031 C 54.523438 52.207031 53.378906 52.0625 52.511719 51.769531 C 51.640625 51.515625 50.96875 51.207031 50.5 50.839844 C 50.027344 50.476562 49.71875 50.113281 49.574219 49.746094 C 49.429688 49.382812 49.359375 49.089844 49.359375 48.871094 C 49.359375 48.433594 49.449219 47.960938 49.628906 47.449219 C 49.8125 46.902344 50.15625 46.320312 50.664062 45.699219 C 50.878906 45.445312 51.117188 45.207031 51.371094 44.988281 C 51.875 44.550781 52.382812 44.277344 52.890625 44.167969 C 52.820312 45.007812 52.910156 45.699219 53.164062 46.246094 C 53.453125 46.757812 53.816406 47.160156 54.25 47.449219 C 54.722656 47.742188 55.230469 47.941406 55.773438 48.050781 C 56.351562 48.160156 56.894531 48.214844 57.402344 48.214844 C 57.910156 48.214844 58.417969 48.144531 58.925781 47.996094 C 59.46875 47.851562 59.957031 47.667969 60.394531 47.449219 C 60.828125 47.195312 61.171875 46.921875 61.425781 46.628906 C 61.71875 46.300781 61.863281 45.957031 61.863281 45.589844 C 61.863281 45.191406 61.699219 44.863281 61.371094 44.605469 C 61.046875 44.351562 60.628906 44.152344 60.121094 44.003906 C 59.652344 43.824219 59.125 43.695312 58.546875 43.621094 C 58 43.511719 57.476562 43.402344 56.96875 43.292969 C 56.460938 43.183594 55.773438 43.039062 54.902344 42.855469 C 54.070312 42.636719 53.234375 42.308594 52.402344 41.871094 C 51.605469 41.433594 50.898438 40.851562 50.28125 40.121094 C 49.703125 39.394531 49.410156 38.425781 49.410156 37.222656 C 49.410156 35.839844 49.757812 34.636719 50.445312 33.613281 C 51.167969 32.558594 52.039062 31.683594 53.054688 30.988281 C 54.105469 30.261719 55.210938 29.714844 56.371094 29.347656 C 57.53125 28.984375 58.5625 28.800781 59.46875 28.800781 C 59.941406 28.800781 60.449219 28.875 60.992188 29.019531 C 61.535156 29.128906 62.042969 29.347656 62.515625 29.675781 C 62.984375 29.96875 63.367188 30.371094 63.65625 30.878906 C 63.980469 31.390625 64.144531 32.046875 64.144531 32.847656 C 64.144531 33.652344 64.074219 34.308594 63.925781 34.816406 C 63.820312 35.292969 63.636719 35.675781 63.382812 35.964844 C 63.167969 36.222656 62.894531 36.386719 62.570312 36.457031 C 62.242188 36.53125 61.863281 36.566406 61.425781 36.566406 C 61.136719 36.566406 60.863281 36.53125 60.609375 36.457031 C 60.394531 36.386719 60.15625 36.3125 59.90625 36.238281 C 59.652344 36.167969 59.414062 36.039062 59.199219 35.855469 C 59.558594 35.417969 59.832031 35 60.011719 34.597656 C 60.230469 34.199219 60.339844 33.707031 60.339844 33.121094 C 60.339844 32.613281 60.195312 32.15625 59.90625 31.753906 C 59.652344 31.355469 59.214844 31.152344 58.601562 31.152344 C 57.949219 31.152344 57.3125 31.28125 56.695312 31.535156 C 56.117188 31.792969 55.589844 32.136719 55.121094 32.574219 C 54.683594 33.011719 54.324219 33.523438 54.03125 34.105469 C 53.78125 34.652344 53.652344 35.253906 53.652344 35.910156 C 53.652344 36.894531 54.015625 37.824219 54.738281 38.699219 C 55.5 39.574219 56.679688 40.324219 58.273438 40.941406 Z M 74.691406 51.933594 C 72.15625 51.933594 70.199219 51.078125 68.820312 49.363281 C 67.441406 47.652344 66.753906 45.410156 66.753906 42.636719 C 66.753906 40.707031 67.027344 38.902344 67.570312 37.222656 C 68.148438 35.511719 68.910156 34.035156 69.851562 32.792969 C 70.796875 31.554688 71.882812 30.589844 73.117188 29.894531 C 74.382812 29.167969 75.707031 28.800781 77.085938 28.800781 C 78.425781 28.800781 79.566406 29.292969 80.507812 30.277344 C 81.453125 31.226562 81.921875 32.59375 81.921875 34.378906 C 81.921875 35.546875 81.667969 36.714844 81.160156 37.878906 C 80.652344 39.011719 79.984375 40.03125 79.148438 40.941406 C 78.351562 41.816406 77.464844 42.527344 76.484375 43.074219 C 75.507812 43.621094 74.566406 43.894531 73.660156 43.894531 C 73.078125 43.894531 72.589844 43.824219 72.191406 43.675781 C 71.792969 43.53125 71.429688 43.3125 71.105469 43.019531 C 71.210938 45.097656 71.664062 46.558594 72.464844 47.394531 C 73.261719 48.199219 74.292969 48.597656 75.5625 48.597656 C 76.433594 48.597656 77.191406 48.417969 77.84375 48.050781 C 78.535156 47.6875 79.113281 47.269531 79.585938 46.792969 C 80.054688 46.320312 80.4375 45.847656 80.726562 45.371094 C 81.015625 44.863281 81.214844 44.480469 81.324219 44.222656 C 81.433594 44.003906 81.613281 43.894531 81.867188 43.894531 C 82.15625 43.894531 82.304688 44.113281 82.304688 44.550781 C 82.304688 44.953125 82.15625 45.574219 81.867188 46.410156 C 81.613281 47.214844 81.179688 48.035156 80.5625 48.871094 C 79.945312 49.675781 79.148438 50.386719 78.171875 51.003906 C 77.230469 51.625 76.070312 51.933594 74.691406 51.933594 Z M 77.191406 31.152344 C 76.976562 31.152344 76.558594 31.390625 75.941406 31.863281 C 75.363281 32.300781 74.726562 32.957031 74.039062 33.832031 C 73.386719 34.707031 72.769531 35.765625 72.191406 37.003906 C 71.648438 38.207031 71.304688 39.574219 71.15625 41.105469 C 73.332031 40.597656 75.054688 39.792969 76.324219 38.699219 C 77.589844 37.605469 78.226562 36.003906 78.226562 33.886719 C 78.226562 32.832031 78.097656 32.121094 77.84375 31.753906 C 77.589844 31.355469 77.375 31.152344 77.191406 31.152344 Z M 100.1875 34.542969 C 100.1875 35.054688 100.042969 35.582031 99.753906 36.128906 C 99.5 36.640625 99.175781 37.132812 98.777344 37.605469 C 98.378906 38.082031 97.925781 38.5 97.417969 38.863281 C 96.945312 39.191406 96.492188 39.394531 96.058594 39.464844 C 96.347656 38.335938 96.4375 37.460938 96.328125 36.839844 C 96.21875 36.222656 96.039062 35.765625 95.785156 35.472656 C 95.496094 35.144531 95.132812 34.964844 94.699219 34.925781 C 94.046875 34.925781 93.410156 35.308594 92.796875 36.074219 C 92.214844 36.804688 91.707031 37.714844 91.273438 38.808594 C 90.839844 39.867188 90.492188 41.015625 90.242188 42.253906 C 89.988281 43.457031 89.859375 44.550781 89.859375 45.535156 C 89.824219 46.230469 89.84375 46.902344 89.914062 47.558594 C 89.949219 48.105469 90.003906 48.671875 90.078125 49.253906 C 90.1875 49.839844 90.332031 50.292969 90.511719 50.621094 C 90.292969 50.804688 89.933594 51.023438 89.425781 51.277344 C 88.953125 51.535156 88.445312 51.699219 87.902344 51.769531 C 87.394531 51.84375 86.925781 51.753906 86.488281 51.496094 C 86.089844 51.242188 85.871094 50.695312 85.835938 49.855469 C 85.765625 49.054688 85.710938 48.160156 85.671875 47.175781 C 85.671875 46.15625 85.671875 45.152344 85.671875 44.167969 C 85.710938 43.148438 85.746094 42.144531 85.78125 41.160156 C 85.820312 40.175781 85.871094 39.265625 85.945312 38.425781 C 86.019531 36.824219 86.054688 35.582031 86.054688 34.707031 C 86.054688 33.832031 86.035156 32.996094 86 32.191406 C 86 32.046875 86.234375 31.847656 86.707031 31.589844 C 87.214844 31.300781 87.757812 31.042969 88.335938 30.824219 C 88.953125 30.605469 89.515625 30.480469 90.023438 30.441406 C 90.53125 30.40625 90.785156 30.515625 90.785156 30.769531 C 90.785156 31.171875 90.730469 31.972656 90.621094 33.175781 C 90.546875 34.34375 90.441406 35.566406 90.292969 36.839844 C 90.546875 36.148438 90.875 35.402344 91.273438 34.597656 C 91.707031 33.796875 92.199219 33.050781 92.742188 32.355469 C 93.285156 31.664062 93.902344 31.097656 94.589844 30.660156 C 95.277344 30.1875 96.039062 29.949219 96.871094 29.949219 C 97.523438 29.949219 98.050781 30.152344 98.449219 30.550781 C 98.882812 30.953125 99.230469 31.410156 99.484375 31.917969 C 99.734375 32.429688 99.917969 32.941406 100.027344 33.449219 C 100.136719 33.960938 100.1875 34.324219 100.1875 34.542969 Z M 108.941406 48.488281 C 109.269531 48.488281 109.703125 47.90625 110.246094 46.738281 C 110.789062 45.574219 111.296875 44.167969 111.769531 42.527344 C 112.277344 40.886719 112.675781 39.191406 112.964844 37.441406 C 113.292969 35.691406 113.382812 34.214844 113.238281 33.011719 C 113.164062 32.613281 113.054688 32.285156 112.910156 32.027344 C 112.800781 31.773438 112.65625 31.5 112.476562 31.207031 C 112.691406 30.917969 112.964844 30.699219 113.292969 30.550781 C 113.617188 30.371094 113.925781 30.242188 114.214844 30.167969 C 114.578125 30.058594 114.941406 29.988281 115.304688 29.949219 C 116.171875 29.914062 116.808594 30.058594 117.207031 30.386719 C 117.421875 30.605469 117.53125 31.117188 117.53125 31.917969 C 117.53125 32.722656 117.441406 33.667969 117.261719 34.761719 C 117.113281 35.820312 116.898438 36.949219 116.609375 38.152344 C 116.355469 39.320312 116.0625 40.394531 115.738281 41.378906 C 115.410156 42.328125 115.011719 43.367188 114.542969 44.496094 C 114.070312 45.589844 113.582031 46.648438 113.074219 47.667969 C 112.566406 48.652344 112.058594 49.511719 111.550781 50.238281 C 111.042969 50.933594 110.609375 51.351562 110.246094 51.496094 C 109.484375 51.789062 108.726562 51.933594 107.964844 51.933594 C 107.238281 51.933594 106.785156 51.84375 106.605469 51.660156 C 106.53125 51.589844 106.367188 51.332031 106.113281 50.894531 C 105.863281 50.457031 105.570312 49.894531 105.246094 49.199219 C 104.957031 48.507812 104.628906 47.707031 104.265625 46.792969 C 103.941406 45.847656 103.652344 44.84375 103.398438 43.785156 C 103.144531 42.730469 102.960938 41.582031 102.851562 40.339844 C 102.746094 39.101562 102.617188 37.898438 102.472656 36.730469 C 102.363281 35.527344 102.199219 34.417969 101.984375 33.394531 C 101.765625 32.375 101.441406 31.535156 101.003906 30.878906 L 103.558594 29.839844 C 103.777344 29.730469 104.03125 29.640625 104.320312 29.566406 C 104.609375 29.457031 104.902344 29.421875 105.191406 29.457031 C 105.480469 29.496094 105.734375 29.640625 105.953125 29.894531 C 106.207031 30.113281 106.367188 30.515625 106.441406 31.097656 C 106.515625 31.753906 106.566406 32.539062 106.605469 33.449219 C 106.675781 34.363281 106.730469 35.308594 106.765625 36.292969 C 106.839844 37.277344 106.914062 38.261719 106.984375 39.246094 C 107.058594 40.195312 107.128906 41.050781 107.203125 41.816406 C 107.273438 42.621094 107.367188 43.421875 107.472656 44.222656 C 107.621094 45.027344 107.765625 45.738281 107.910156 46.355469 C 108.089844 46.976562 108.253906 47.488281 108.398438 47.886719 C 108.578125 48.289062 108.761719 48.488281 108.941406 48.488281 Z M 120.738281 31.972656 C 120.738281 31.753906 121.027344 31.519531 121.609375 31.261719 C 122.1875 31.007812 122.824219 30.808594 123.511719 30.660156 C 124.238281 30.480469 124.890625 30.386719 125.46875 30.386719 C 126.085938 30.351562 126.394531 30.480469 126.394531 30.769531 C 126.394531 31.316406 126.355469 32.101562 126.285156 33.121094 C 126.210938 34.105469 126.121094 35.164062 126.011719 36.292969 C 125.902344 37.386719 125.796875 38.5 125.6875 39.628906 C 125.578125 40.722656 125.503906 41.652344 125.46875 42.417969 C 125.398438 43.222656 125.324219 44.097656 125.25 45.042969 C 125.179688 45.847656 125.125 46.738281 125.089844 47.722656 C 125.050781 48.707031 125.050781 49.710938 125.089844 50.730469 C 125.089844 50.914062 124.90625 51.097656 124.546875 51.277344 C 124.183594 51.460938 123.785156 51.589844 123.347656 51.660156 C 122.914062 51.769531 122.496094 51.824219 122.097656 51.824219 C 121.699219 51.824219 121.480469 51.753906 121.445312 51.605469 C 121.375 51.460938 121.300781 51.207031 121.230469 50.839844 C 121.15625 50.476562 121.082031 49.964844 121.011719 49.308594 C 120.9375 48.617188 120.882812 47.742188 120.847656 46.683594 C 120.8125 45.589844 120.828125 44.277344 120.902344 42.746094 C 121.046875 39.722656 121.066406 37.386719 120.957031 35.746094 C 120.847656 34.070312 120.777344 32.8125 120.738281 31.972656 Z M 124.546875 21.089844 C 125.269531 21.089844 125.957031 21.308594 126.609375 21.746094 C 127.261719 22.183594 127.589844 22.769531 127.589844 23.496094 C 127.589844 24.042969 127.445312 24.574219 127.15625 25.082031 C 126.902344 25.59375 126.574219 26.050781 126.175781 26.449219 C 125.777344 26.851562 125.324219 27.179688 124.816406 27.433594 C 124.308594 27.652344 123.839844 27.761719 123.402344 27.761719 C 122.824219 27.761719 122.351562 27.671875 121.988281 27.488281 C 121.628906 27.269531 121.335938 27.035156 121.121094 26.777344 C 120.9375 26.488281 120.8125 26.175781 120.738281 25.847656 C 120.667969 25.519531 120.628906 25.210938 120.628906 24.917969 C 120.628906 24.554688 120.683594 24.152344 120.792969 23.714844 C 120.902344 23.242188 121.101562 22.824219 121.390625 22.457031 C 121.683594 22.058594 122.082031 21.730469 122.585938 21.472656 C 123.09375 21.21875 123.746094 21.089844 124.546875 21.089844 Z M 123.1875 26.175781 C 123.402344 26.175781 123.640625 26.105469 123.890625 25.957031 C 124.183594 25.777344 124.4375 25.574219 124.652344 25.355469 C 124.90625 25.136719 125.105469 24.902344 125.25 24.644531 C 125.433594 24.390625 125.523438 24.171875 125.523438 23.988281 C 125.523438 23.699219 125.378906 23.550781 125.089844 23.550781 C 124.90625 23.550781 124.671875 23.625 124.382812 23.769531 C 124.128906 23.917969 123.875 24.097656 123.621094 24.316406 C 123.367188 24.5 123.148438 24.71875 122.96875 24.972656 C 122.824219 25.191406 122.75 25.410156 122.75 25.628906 C 122.75 25.996094 122.894531 26.175781 123.1875 26.175781 Z M 145.855469 48.542969 C 145.929688 48.800781 146.039062 49.035156 146.183594 49.253906 C 146.292969 49.4375 146.4375 49.621094 146.617188 49.800781 C 146.835938 49.949219 147.089844 50.039062 147.378906 50.074219 C 147.125 50.585938 146.871094 50.933594 146.617188 51.113281 C 146.472656 51.222656 146.34375 51.296875 146.238281 51.332031 C 145.910156 51.441406 145.421875 51.496094 144.769531 51.496094 C 144.117188 51.496094 143.480469 51.296875 142.867188 50.894531 C 142.648438 50.714844 142.449219 50.441406 142.269531 50.074219 C 142.085938 49.785156 141.921875 49.382812 141.777344 48.871094 C 141.671875 48.324219 141.578125 47.632812 141.507812 46.792969 C 141 47.886719 140.417969 48.761719 139.765625 49.417969 C 139.152344 50.039062 138.535156 50.496094 137.917969 50.785156 C 137.230469 51.1875 136.523438 51.425781 135.796875 51.496094 C 134.890625 51.570312 134.023438 51.425781 133.1875 51.058594 C 132.390625 50.660156 131.703125 50.074219 131.125 49.308594 C 130.578125 48.507812 130.164062 47.542969 129.871094 46.410156 C 129.582031 45.28125 129.492188 44.003906 129.601562 42.582031 C 129.710938 41.089844 130 39.757812 130.472656 38.589844 C 130.941406 37.425781 131.503906 36.386719 132.15625 35.472656 C 132.808594 34.5625 133.496094 33.796875 134.222656 33.175781 C 134.945312 32.519531 135.636719 31.992188 136.289062 31.589844 C 136.976562 31.152344 137.554688 30.84375 138.027344 30.660156 C 138.535156 30.441406 138.859375 30.316406 139.007812 30.277344 C 139.40625 30.167969 139.75 30.132812 140.039062 30.167969 C 140.328125 30.207031 140.582031 30.371094 140.800781 30.660156 C 140.871094 30.769531 140.964844 30.898438 141.070312 31.042969 C 141.144531 31.191406 141.234375 31.390625 141.34375 31.644531 C 141.453125 31.863281 141.542969 32.121094 141.617188 32.410156 C 140.746094 32.8125 139.929688 33.269531 139.167969 33.777344 C 138.40625 34.253906 137.703125 34.835938 137.050781 35.527344 C 136.433594 36.222656 135.890625 37.058594 135.417969 38.042969 C 134.945312 39.027344 134.585938 40.230469 134.332031 41.652344 C 133.96875 43.441406 134.058594 44.878906 134.601562 45.972656 C 135.183594 47.066406 135.960938 47.523438 136.941406 47.339844 C 137.519531 47.160156 138.082031 46.8125 138.625 46.300781 C 139.097656 45.863281 139.585938 45.207031 140.09375 44.332031 C 140.636719 43.457031 141.144531 42.253906 141.617188 40.722656 C 141.796875 38.535156 141.941406 36.824219 142.050781 35.582031 C 142.195312 34.308594 142.324219 33.339844 142.429688 32.683594 C 142.574219 31.917969 142.683594 31.410156 142.757812 31.152344 C 142.867188 30.972656 143.082031 30.808594 143.410156 30.660156 C 143.734375 30.480469 144.097656 30.332031 144.496094 30.222656 C 144.894531 30.113281 145.257812 30.058594 145.585938 30.058594 C 145.910156 30.023438 146.128906 30.023438 146.238281 30.058594 C 146.308594 30.097656 146.34375 30.550781 146.34375 31.425781 C 146.34375 32.265625 146.308594 33.339844 146.238281 34.652344 C 146.199219 35.929688 146.144531 37.332031 146.074219 38.863281 C 146 40.359375 145.929688 41.78125 145.855469 43.128906 C 145.820312 44.480469 145.785156 45.664062 145.746094 46.683594 C 145.746094 47.667969 145.785156 48.289062 145.855469 48.542969 Z M 145.855469 48.542969 "/>
</g>
</svg>
