<?xml version="1.0" encoding="UTF-8"?>
<svg xmlns="http://www.w3.org/2000/svg" xmlns:xlink="http://www.w3.org/1999/xlink" width="15pt" height="14pt" viewBox="0 0 15 14" version="1.1">
<g id="surface1">
<path style=" stroke:none;fill-rule:nonzero;fill:rgb(0%,39.607843%,98.823529%);fill-opacity:1;" d="M 14.367188 1.492188 C 13.46875 1.042969 12.570312 0.875 11.671875 0.875 C 8.824219 0.875 5.980469 2.578125 3.128906 2.578125 C 2.414062 2.578125 1.699219 2.476562 0.988281 2.207031 C 0.90625 2.171875 0.824219 2.160156 0.746094 2.160156 C 0.347656 2.160156 0 2.523438 0 3.03125 L 0 11.703125 C 0 12.050781 0.164062 12.378906 0.4375 12.507812 C 1.332031 12.957031 2.230469 13.125 3.128906 13.125 C 5.980469 13.125 8.828125 11.421875 11.675781 11.421875 C 12.390625 11.421875 13.101562 11.523438 13.816406 11.792969 C 13.898438 11.828125 13.976562 11.839844 14.058594 11.839844 C 14.457031 11.839844 14.800781 11.476562 14.800781 10.96875 L 14.800781 2.296875 C 14.800781 1.949219 14.636719 1.621094 14.367188 1.492188 Z M 1.109375 3.613281 C 1.578125 3.753906 2.0625 3.824219 2.558594 3.859375 C 2.425781 4.664062 1.828125 5.269531 1.109375 5.269531 Z M 1.109375 11.40625 L 1.109375 10.101562 C 1.90625 10.101562 2.546875 10.847656 2.582031 11.78125 C 2.0625 11.730469 1.578125 11.609375 1.109375 11.40625 Z M 7.402344 9.625 C 6.378906 9.625 5.550781 8.449219 5.550781 7 C 5.550781 5.550781 6.378906 4.375 7.402344 4.375 C 8.421875 4.375 9.25 5.550781 9.25 7 C 9.25 8.449219 8.421875 9.625 7.402344 9.625 Z M 13.691406 10.386719 C 13.289062 10.261719 12.867188 10.199219 12.4375 10.152344 C 12.570312 9.441406 13.070312 8.898438 13.691406 8.804688 Z M 13.691406 3.929688 C 12.980469 3.824219 12.425781 3.117188 12.402344 2.246094 C 12.851562 2.304688 13.285156 2.414062 13.691406 2.59375 Z M 13.691406 3.929688 "/>
</g>
</svg>
