<?xml version="1.0" encoding="UTF-8"?>
<svg xmlns="http://www.w3.org/2000/svg" xmlns:xlink="http://www.w3.org/1999/xlink" width="18pt" height="20pt" viewBox="0 0 18 20" version="1.1">
<g id="surface1">
<path style=" stroke:none;fill-rule:nonzero;fill:rgb(0%,39.607843%,98.823529%);fill-opacity:1;" d="M 9.3125 8.75 L 14 10.84375 L 14 19.375 C 14 19.71875 13.777344 20 13.5 20 L 11.5 20 C 11.222656 20 11 19.71875 11 19.375 L 11 15 L 6 15 L 6 19.375 C 6 19.71875 5.777344 20 5.5 20 L 3.5 20 C 3.222656 20 3 19.71875 3 19.375 L 3 11.019531 C 1.839844 10.5 1 9.128906 1 7.5 C 1 6.808594 1.449219 6.25 2 6.25 C 2.550781 6.25 3 6.808594 3 7.5 C 3 8.191406 3.449219 8.75 4 8.75 Z M 17 4.375 L 17 5.625 C 17 7.003906 16.105469 8.125 15 8.125 L 14 8.125 L 14 9.515625 L 10 7.730469 L 10 1.875 C 10 1.320312 10.539062 1.039062 10.851562 1.433594 L 11.707031 2.5 L 13.382812 2.5 C 13.722656 2.5 14.125 2.808594 14.277344 3.191406 L 14.5 3.75 L 16.5 3.75 C 16.777344 3.75 17 4.03125 17 4.375 Z M 13.5 4.375 C 13.5 4.03125 13.277344 3.75 13 3.75 C 12.722656 3.75 12.5 4.03125 12.5 4.375 C 12.5 4.71875 12.722656 5 13 5 C 13.277344 5 13.5 4.71875 13.5 4.375 Z M 13.5 4.375 "/>
</g>
</svg>
