<?xml version="1.0" encoding="UTF-8"?>
<svg xmlns="http://www.w3.org/2000/svg" xmlns:xlink="http://www.w3.org/1999/xlink" width="18pt" height="20pt" viewBox="0 0 18 20" version="1.1">
<g id="surface1">
<path style=" stroke:none;fill-rule:nonzero;fill:rgb(0%,39.607843%,98.823529%);fill-opacity:1;" d="M 5.625 2.75 C 5.625 1.230469 7.136719 0 9 0 C 10.863281 0 12.375 1.230469 12.375 2.75 C 12.375 4.269531 10.863281 5.503906 9 5.503906 C 7.136719 5.503906 5.625 4.269531 5.625 2.75 Z M 17.5625 2.800781 C 16.972656 2.328125 16.023438 2.328125 15.441406 2.800781 L 11.378906 6.113281 L 6.621094 6.113281 L 2.558594 2.800781 C 1.976562 2.328125 1.027344 2.328125 0.4375 2.800781 C -0.148438 3.28125 -0.148438 4.054688 0.4375 4.535156 L 4.875 8.148438 L 4.875 18.34375 C 4.875 19.015625 5.546875 19.566406 6.375 19.566406 L 7.125 19.566406 C 7.953125 19.566406 8.625 19.015625 8.625 18.34375 L 8.625 14.0625 L 9.375 14.0625 L 9.375 18.34375 C 9.375 19.015625 10.046875 19.566406 10.875 19.566406 L 11.625 19.566406 C 12.453125 19.566406 13.125 19.015625 13.125 18.34375 L 13.125 8.148438 L 17.5625 4.535156 C 18.148438 4.054688 18.148438 3.28125 17.5625 2.800781 Z M 17.5625 2.800781 "/>
</g>
</svg>
