<?xml version="1.0" encoding="UTF-8"?>
<svg xmlns="http://www.w3.org/2000/svg" xmlns:xlink="http://www.w3.org/1999/xlink" width="40pt" height="40pt" viewBox="0 0 40 40" version="1.1">
<g id="surface1">
<path style=" stroke:none;fill-rule:nonzero;fill:rgb(0%,0%,0%);fill-opacity:1;" d="M 38.75 30 L 5 30 L 5 6.25 C 5 5.558594 4.441406 5 3.75 5 L 1.25 5 C 0.558594 5 0 5.558594 0 6.25 L 0 32.5 C 0 33.878906 1.121094 35 2.5 35 L 38.75 35 C 39.441406 35 40 34.441406 40 33.75 L 40 31.25 C 40 30.558594 39.441406 30 38.75 30 Z M 36.25 7.5 L 27.027344 7.5 C 25.355469 7.5 24.519531 9.519531 25.699219 10.699219 L 28.230469 13.230469 L 22.5 18.964844 L 16.769531 13.234375 C 15.792969 12.257812 14.207031 12.257812 13.234375 13.234375 L 7.867188 18.597656 C 7.378906 19.085938 7.378906 19.878906 7.867188 20.367188 L 9.632812 22.132812 C 10.121094 22.621094 10.914062 22.621094 11.402344 22.132812 L 15 18.535156 L 20.730469 24.265625 C 21.707031 25.242188 23.292969 25.242188 24.265625 24.265625 L 31.765625 16.765625 L 34.296875 19.296875 C 35.480469 20.480469 37.5 19.644531 37.5 17.972656 L 37.5 8.75 C 37.5 8.058594 36.941406 7.5 36.25 7.5 Z M 36.25 7.5 "/>
</g>
</svg>
