<?xml version="1.0" encoding="UTF-8"?>
<svg xmlns="http://www.w3.org/2000/svg" xmlns:xlink="http://www.w3.org/1999/xlink" width="7pt" height="13pt" viewBox="0 0 7 13" version="1.1">
<g id="surface1">
<path style=" stroke:none;fill-rule:nonzero;fill:rgb(0%,39.607843%,98.823529%);fill-opacity:1;" d="M 0.730469 10.769531 L 1.457031 10.769531 L 1.457031 7.105469 L 0.730469 7.105469 C 0.328125 7.105469 0 6.875 0 6.597656 L 0 5.382812 C 0 5.101562 0.328125 4.875 0.730469 4.875 L 4.8125 4.875 C 5.214844 4.875 5.542969 5.101562 5.542969 5.382812 L 5.542969 10.769531 L 6.269531 10.769531 C 6.671875 10.769531 7 11 7 11.277344 L 7 12.492188 C 7 12.773438 6.671875 13 6.269531 13 L 0.730469 13 C 0.328125 13 0 12.773438 0 12.492188 L 0 11.277344 C 0 11 0.328125 10.769531 0.730469 10.769531 Z M 3.5 0 C 2.050781 0 0.875 0.820312 0.875 1.828125 C 0.875 2.835938 2.050781 3.65625 3.5 3.65625 C 4.949219 3.65625 6.125 2.835938 6.125 1.828125 C 6.125 0.820312 4.949219 0 3.5 0 Z M 3.5 0 "/>
</g>
</svg>
