<?xml version="1.0" encoding="UTF-8"?>
<svg xmlns="http://www.w3.org/2000/svg" xmlns:xlink="http://www.w3.org/1999/xlink" width="11pt" height="14pt" viewBox="0 0 11 14" version="1.1">
<g id="surface1">
<path style=" stroke:none;fill-rule:nonzero;fill:rgb(0%,0%,0%);fill-opacity:1;" d="M 4.871094 13.71875 C 0.761719 7.957031 0 7.367188 0 5.25 C 0 2.351562 2.429688 0 5.425781 0 C 8.425781 0 10.855469 2.351562 10.855469 5.25 C 10.855469 7.367188 10.09375 7.957031 5.984375 13.71875 C 5.714844 14.09375 5.140625 14.09375 4.871094 13.71875 Z M 5.425781 7.4375 C 6.675781 7.4375 7.6875 6.457031 7.6875 5.25 C 7.6875 4.042969 6.675781 3.0625 5.425781 3.0625 C 4.179688 3.0625 3.167969 4.042969 3.167969 5.25 C 3.167969 6.457031 4.179688 7.4375 5.425781 7.4375 Z M 5.425781 7.4375 "/>
</g>
</svg>
